<svg xmlns="http://www.w3.org/2000/svg" style="display:none">
  <symbol id="icon-sofa" viewBox="0 0 64 64"><path d="M8 30v14a4 4 0 0 0 4 4h2v4h4v-4h28v4h4v-4h2a4 4 0 0 0 4-4V30a6 6 0 0 0-6-6h-2v-4a6 6 0 0 0-6-6H22a6 6 0 0 0-6 6v4h-2a6 6 0 0 0-6 6Zm12-10a2 2 0 0 1 2-2h20a2 2 0 0 1 2 2v4H20Zm-8 10a2 2 0 0 1 2-2h36a2 2 0 0 1 2 2v8H12Z"/></symbol>
  <symbol id="icon-bed" viewBox="0 0 64 64"><path d="M6 50V18a2 2 0 0 1 4 0v14h44V30a4 4 0 0 1 8 0v20h-4v-6H10v6Zm10-22a4 4 0 1 1 0-8 4 4 0 0 1 0 8Zm10-2h14a4 4 0 0 1 4 4v6H22v-6a4 4 0 0 1 4-4Z"/></symbol>
  <symbol id="icon-wardrobe" viewBox="0 0 64 64"><path d="M12 6h40a2 2 0 0 1 2 2v48a2 2 0 0 1-2 2H12a2 2 0 0 1-2-2V8a2 2 0 0 1 2-2Zm2 4v44h16V10Zm20 0v44h16V10ZM30 28a2 2 0 1 0 4 0 2 2 0 0 0-4 0Zm0 0h0Zm0 0Z"/></symbol>
  <symbol id="icon-cabinet" viewBox="0 0 64 64"><path d="M8 14a4 4 0 0 1 4-4h40a4 4 0 0 1 4 4v8H8Zm0 12h48v24a4 4 0 0 1-4 4H12a4 4 0 0 1-4-4Zm12 6v8h10v-8Zm22 0v8h10v-8Z"/></symbol>
  <symbol id="icon-tvstand" viewBox="0 0 64 64"><path d="M10 10h44a2 2 0 0 1 2 2v22a2 2 0 0 1-2 2H10a2 2 0 0 1-2-2V12a2 2 0 0 1 2-2Zm4 4v20h36V14ZM6 44h52v6H6Z"/></symbol>
  <symbol id="icon-dining" viewBox="0 0 64 64"><ellipse cx="32" cy="20" rx="22" ry="8"/><path d="M10 20v4l4 28h4l3-26h22l3 26h4l4-28v-4"/></symbol>
  <symbol id="icon-office" viewBox="0 0 64 64"><path d="M14 14h36v6H14Zm0 28h36v6H14ZM10 26h8a2 2 0 0 1 2 2v8a2 2 0 0 1-2 2h-8a8 8 0 0 1 0-12Zm44 0a8 8 0 0 1 0 12h-8a2 2 0 0 1-2-2v-8a2 2 0 0 1 2-2Z"/></symbol>
  <symbol id="icon-custom" viewBox="0 0 64 64"><path d="M32 4 6 18v28l26 14 26-14V18Zm0 8 17 9-17 9-17-9Zm-19 13 17 9v18l-17-9Zm38 0v18l-17 9V34Z"/></symbol>
  <symbol id="icon-search" viewBox="0 0 24 24"><path d="M10 4a6 6 0 1 0 3.76 10.65l5.3 5.3 1.42-1.42-5.3-5.3A6 6 0 0 0 10 4Zm0 2a4 4 0 1 1 0 8 4 4 0 0 1 0-8Z"/></symbol>
  <symbol id="icon-cart" viewBox="0 0 24 24"><path d="M7 4h-2v2h2l3.6 7.59-1.35 2.45A2 2 0 0 0 11 19h9v-2h-9l1.1-2h7a2 2 0 0 0 1.8-1.1L23.6 8H7.42L6.3 5.6A2 2 0 0 0 4.5 4H7Zm1 17a1.5 1.5 0 1 0 0-3 1.5 1.5 0 0 0 0 3Zm10 0a1.5 1.5 0 1 0 0-3 1.5 1.5 0 0 0 0 3Z"/></symbol>
  <symbol id="icon-heart" viewBox="0 0 24 24"><path d="M12 21s-7.5-4.6-10.2-9.1C-0.1 8.6 1.3 4.8 5 4a5 5 0 0 1 7 1.6A5 5 0 0 1 19 4c3.7.8 5.1 4.6 3.2 7.9C19.5 16.4 12 21 12 21Z"/></symbol>
  <symbol id="icon-sun" viewBox="0 0 24 24"><path d="M12 4V2m0 20v-2M4 12H2m20 0h-2M5.6 5.6 4.2 4.2m15.6 15.6-1.4-1.4M5.6 18.4 4.2 19.8M18.4 5.6l1.4-1.4M12 7a5 5 0 1 0 0 10 5 5 0 0 0 0-10Z"/></symbol>
  <symbol id="icon-moon" viewBox="0 0 24 24"><path d="M21 12.8A9 9 0 1 1 11.2 3a7 7 0 0 0 9.8 9.8Z"/></symbol>
  <symbol id="icon-menu" viewBox="0 0 24 24"><path d="M3 6h18v2H3Zm0 5h18v2H3Zm0 5h18v2H3Z"/></symbol>
  <symbol id="icon-close" viewBox="0 0 24 24"><path d="M6.4 4.98 4.98 6.4 10.59 12l-5.61 5.6 1.42 1.42L12 13.41l5.6 5.61 1.42-1.42L13.41 12l5.61-5.6-1.42-1.42L12 10.59Z"/></symbol>
  <symbol id="icon-whatsapp" viewBox="0 0 32 32"><path d="M16 2C8.3 2 2 8.3 2 16c0 2.7.8 5.3 2.2 7.5L2 30l6.7-2.1C10.8 29.2 13.3 30 16 30c7.7 0 14-6.3 14-14S23.7 2 16 2Zm0 25.5c-2.3 0-4.6-.6-6.5-1.8l-.5-.3-4 1.2 1.2-3.9-.3-.5C4.5 20.3 4 18.2 4 16 4 9.4 9.4 4 16 4s12 5.4 12 12-5.4 12-12 12Zm6.6-9c-.4-.2-2.1-1-2.4-1.2-.3-.1-.5-.2-.8.2-.2.3-.9 1.2-1.1 1.4-.2.2-.4.3-.8.1-.4-.2-1.5-.5-2.8-1.7-1-1-1.7-2.1-1.9-2.5-.2-.4 0-.6.2-.8.2-.2.5-.5.7-.8.2-.2.3-.4.4-.7.1-.3 0-.5-.1-.7-.1-.2-.9-2.1-1.2-2.9-.3-.7-.6-.6-.8-.6h-.7c-.2 0-.6.1-.9.5-.3.4-1.2 1.2-1.2 2.9s1.3 3.4 1.5 3.6c.2.2 2.5 3.8 6 5.2 3.5 1.3 3.5.9 4.1.8.6-.1 2.1-.9 2.4-1.7.3-.8.3-1.5.2-1.7-.1-.1-.3-.2-.7-.4Z"/></symbol>
  <symbol id="icon-arrow-up" viewBox="0 0 24 24"><path d="M12 4 4 12l1.4 1.4L11 7.8V20h2V7.8l5.6 5.6L20 12Z"/></symbol>
  <symbol id="icon-star" viewBox="0 0 24 24"><path d="M12 2.5 14.9 9l7.1.6-5.4 4.7 1.6 7-6.2-3.7L6 21.3l1.6-7L2.2 9.6 9.3 9Z"/></symbol>
  <symbol id="icon-quote" viewBox="0 0 24 24"><path d="M7 7c-2.2 0-4 1.8-4 4v6h6v-6H6.2C6.3 9.4 7.3 8.4 9 8V6c-.7 0-1.4.3-2 1Zm10 0c-2.2 0-4 1.8-4 4v6h6v-6h-2.8c.1-1.6 1.1-2.6 2.8-3V6c-.7 0-1.4.3-2 1Z"/></symbol>
  <symbol id="icon-check" viewBox="0 0 24 24"><path d="M9 16.2 4.8 12l-1.4 1.4L9 19 20.6 7.4 19.2 6Z"/></symbol>
  <symbol id="icon-phone" viewBox="0 0 24 24"><path d="M6.6 10.8a15.9 15.9 0 0 0 6.6 6.6l2.2-2.2a1 1 0 0 1 1-.2 11 11 0 0 0 3.5.6 1 1 0 0 1 1 1V20a1 1 0 0 1-1 1A17 17 0 0 1 3 4a1 1 0 0 1 1-1h3.4a1 1 0 0 1 1 1c0 1.2.2 2.4.6 3.5a1 1 0 0 1-.2 1Z"/></symbol>
  <symbol id="icon-pin" viewBox="0 0 24 24"><path d="M12 2a7 7 0 0 0-7 7c0 5.2 7 13 7 13s7-7.8 7-13a7 7 0 0 0-7-7Zm0 9.5A2.5 2.5 0 1 1 12 6.5a2.5 2.5 0 0 1 0 5Z"/></symbol>
  <symbol id="icon-mail" viewBox="0 0 24 24"><path d="M3 5h18a1 1 0 0 1 1 1v12a1 1 0 0 1-1 1H3a1 1 0 0 1-1-1V6a1 1 0 0 1 1-1Zm1 2.4V17h16V7.4l-7.4 5.3a1 1 0 0 1-1.2 0Zm.8-.4L12 11.5 18.2 7Z"/></symbol>
  <symbol id="icon-chevron-down" viewBox="0 0 24 24"><path d="M7 10l5 5 5-5z"/></symbol>
  <symbol id="icon-plus" viewBox="0 0 24 24"><path d="M11 11V5h2v6h6v2h-6v6h-2v-6H5v-2z"/></symbol>
  <symbol id="icon-minus" viewBox="0 0 24 24"><path d="M5 11h14v2H5z"/></symbol>
  <symbol id="icon-trash" viewBox="0 0 24 24"><path d="M6 7h12l-1 14H7Zm3-4h6l1 2H8Zm-4 2h16v2H5Z"/></symbol>
</svg>
